<svg width="230" height="99" viewBox="0 0 230 99" fill="none" xmlns="http://www.w3.org/2000/svg">
<path d="M52.8125 7.9375H87.5V31.5625H81C69.7083 31.5625 62 29.7917 57.875 26.25C54.5 23.3333 52.8125 18.625 52.8125 12.125V7.9375ZM8.375 7.9375H42V42.1875H67.0625V58.5H42V92.875H8.375V7.9375ZM52.75 86.9375C52.75 78.3125 57.75 72.4583 67.75 69.375C71.5833 68.2083 76.5208 67.625 82.5625 67.625H87.5V93H52.75V86.9375Z" fill="#C7A773"/>
<path d="M111.732 77.0625H113.138C116.971 77.0625 119.258 78.3646 119.997 80.9688C120.247 81.8125 120.372 82.7865 120.372 83.8906V93H111.732V77.0625ZM100.466 77.0625H109.154V93H100.466V77.0625ZM136.387 83.6875C136.387 81.3542 136.981 79.6667 138.169 78.625C139.387 77.5833 141.341 77.0625 144.028 77.0625H144.981V82.9688C144.981 87.8125 143.596 90.9167 140.825 92.2812C139.856 92.7604 138.695 93 137.341 93H136.387V83.6875ZM132.7 93C130.085 93 128.137 92.0885 126.856 90.2656C125.669 88.5781 125.075 86.1458 125.075 82.9688V77.0625H126.028C128.716 77.0625 130.669 77.5833 131.887 78.625C133.075 79.6667 133.669 81.3542 133.669 83.6875V93H132.7ZM154.543 72.7812C151.095 72.7812 149.371 71.7031 149.371 69.5469C149.371 68.4427 149.783 67.651 150.606 67.1719C151.429 66.6823 152.684 66.4375 154.371 66.4375C156.059 66.4375 157.304 66.6823 158.106 67.1719C158.908 67.651 159.309 68.4479 159.309 69.5625C159.309 70.6667 158.934 71.4792 158.184 72C157.444 72.5208 156.231 72.7812 154.543 72.7812ZM150.246 77.0781H158.652V93H150.246V77.0781ZM187.527 77.0625H188.933C192.766 77.0625 195.053 78.3646 195.792 80.9688C196.042 81.8125 196.167 82.7865 196.167 83.8906V93H187.527V77.0625ZM175.933 77.0625H177.339C181.173 77.0625 183.459 78.3646 184.199 80.9688C184.449 81.8125 184.574 82.7865 184.574 83.8906V93H175.933V77.0625ZM164.308 77.0625H172.996V93H164.308V77.0625ZM212.776 77.0625H221.401V93H220.417C217.709 93 215.761 92.526 214.573 91.5781C213.375 90.6198 212.776 89.0365 212.776 86.8281V77.0625ZM201.495 85.2188C201.495 84.0729 201.646 83.0104 201.948 82.0312C202.25 81.0417 202.719 80.1771 203.354 79.4375C204.729 77.8542 206.698 77.0625 209.261 77.0625H210.464V93H209.651C207.026 93 204.995 92.2812 203.557 90.8438C202.182 89.4688 201.495 87.5938 201.495 85.2188Z" fill="white"/>
</svg>
